# xmcd
#
# Track frame offsets:
# 150
# 13117
# 31270
# 46502
# 65312
# 82223
# 95088
# 111068
# 126553
# 139439
# 154767
# 170025
# 183854
# 196941
# 208754
# 223735
# 239475
# 254997
# 268644
# 284842
#
# Disc length: 4015 seconds
#
#
# Revision: 0
# Processed by: cddbd v1.5.1PL0 Copyright (c) Steve Scherf et al.
# Submitted via: FreeRIP 2.942 
#
DISCID=3f0fad14
DTITLE=Sertanejas Dançantes - Clube do Batidão
DYEAR=2005
DGENRE=Country
TTITLE0=Clube do Batidão - Rio Negro and Solimões
TTITLE1=A Mulher e a Bebina - Gino e Geno
TTITLE2=Agita Aí - Gino e Geno
TTITLE3=Agora Guenta Nóis - Zezé di Camargo and Luciano
TTITLE4=Alô Meu Povo - Guilherme Santiago
TTITLE5=Balançou Sacudiu - Rio Negro and Solimões
TTITLE6=Bebo Pra Carai - Gino e Geno
TTITLE7=Casa comida - Rio Negro and Solimões
TTITLE8=Depois da Uma - Mato Grosso and Matias
TTITLE9=Eu me enganei - Ataide e alexandre
TTITLE10=Galera Coração - Edson e Hudson
TTITLE11=Gosto de Mulher, Meu amigo de Piga - Teodoro and Sampaio
TTITLE12=Na Mira do Chifrudo - Teodoro and Sampaio
TTITLE13=Nóis Gosta É de Mulher - Gilbero e gilmar
TTITLE14=O Caldeirão Vai Ferver - Edson e Hudson
TTITLE15=Que Pescar Que Nada - Bruno and Marrone
TTITLE16=Solte a Garganta - Edson e Hudson
TTITLE17=Sou Parada Dura - Zezé di Camargo and Luciano
TTITLE18=Toco de Saia - Teodoro e Sampaio
TTITLE19=Tradição Gaúcha - Chitãozinho and chororó
EXTD=By Novathynho 2005
EXTT0=
EXTT1=
EXTT2=
EXTT3=
EXTT4=
EXTT5=
EXTT6=
EXTT7=
EXTT8=
EXTT9=
EXTT10=
EXTT11=
EXTT12=
EXTT13=
EXTT14=
EXTT15=
EXTT16=
EXTT17=
EXTT18=
EXTT19=
PLAYORDER=
